{"title":"I Am Among No One MarilynManson Trailer 720p","uid":6449921,"size":12730966,"categoryP":"video","categoryS":"music_videos","magnet":"?xt=urn:btih:05931ea4ef3b198f32da09d32be29b87088e66ea&amp;dn=I+Am+Among+No+One+MarilynManson+Trailer+720p&amp;tr=udp%3A%2F%2Ftracker.openbittorrent.com%3A80&amp;tr=udp%3A%2F%2Fopen.demonii.com%3A1337&amp;tr=udp%3A%2F%2Ftracker.coppersurfer.tk%3A6969&amp;tr=udp%3A%2F%2Fexodus.desync.com%3A6969","seeders":0,"leechers":1,"uploader":"ankygautam","files":1,"time":1307387761,"description":"General\n\nMarilynManson has posted a video teaser of his band's upcoming new material.\n\nA 26-second clip, believed to be from the follow-up to 2009's The High End Of Low, was posted on the group's official website.\n\nThe video has the title &quot;I am among no one (excerpt from an undisclosed song with an unreleased title)&quot;.\n\nThe frontman also posted a message on the redesigned site with the heading &quot;Rapeture&quot;. &quot;Christianity. Manufactures. Yesterdays. Killers,&quot; it stated. &quot;Brave Now World. Don't ever believe what you read, especially if you are illiterate.&quot;\n\nIt concluded: &quot;We do not walk among them. I am among no one.&quot;\n\nEarlier this year, drummer Ginger Fish quit Marilyn Manson &quot;to see where my life, and the knowledge of my availability, cares to take me&quot;. \n\nManson signed to UK-based indie Cooking Vinyl last November and will reportedly release material on his own Hell Etc. imprint.\n\n\nDetails\n\n\n\nComplete name                    : i am among no one (excerpt from an undisclosed song with an unreleased title) on vimeo.avi\nFormat                           : AVI\nFormat/Info                      : Audio Video Interleave\nFile size                        : 12.1 MiB\nDuration                         : 26s 18ms\nOverall bit rate                 : 3 915 Kbps\n\n\nformat                           : AVC\nFormat/Info                      : Advanced Video Codec\nFormat profile                   : &lt;a class=&quot;__cf_email__&quot; href=&quot;/cdn-cgi/l/email-protection&quot; data-cfemail=&quot;b8fad9cbddd4d1d6ddf8f48b9688&quot;&gt;[email&amp;#160;protected]&lt;/a&gt;&lt;script cf-hash='f9e31' type=&quot;text/javascript&quot;&gt;\n/* &lt;![CDATA[ */!function(){try{var t=&quot;currentScript&quot;in document?document.currentScript:function(){for(var t=document.getElementsByTagName(&quot;script&quot;),e=t.length;e--;)if(t[e].getAttribute(&quot;cf-hash&quot;))return t[e]}();if(t&amp;&amp;t.previousSibling){var e,r,n,i,c=t.previousSibling,a=c.getAttribute(&quot;data-cfemail&quot;);if(a){for(e=&quot;&quot;,r=parseInt(a.substr(0,2),16),n=2;a.length-n;n+=2)i=parseInt(a.substr(n,2),16)^r,e+=String.fromCharCode(i);e=document.createTextNode(e),c.parentNode.replaceChild(e,c)}}}catch(u){}}();/* ]]&gt; */&lt;/script&gt;\nFormat settings, CABAC           : No\nFormat settings, ReFrames        : 1 frame\nCodec ID                         : avc1\nDuration                         : 25s 901ms\nBit rate                         : 3 790 Kbps\nNominal bit rate                 : 3 751 Kbps\nWidth                            : 1 280 pixels\nHeight                           : 720 pixels\nDisplay aspect ratio             : 16:9\nFrame rate                       : 23.976 fps\nResolution                       : 24 bits\nColorimetry                      : 4:2:0\nScan type                        : Progressive\nBits/(Pixel*Frame)               : 0.172\nStream size                      : 11.7 MiB\nFormat                           : MPEG Audio\nFormat version                   : Version 1\nFormat profile                   : Layer 3\nCodec ID                         : 55\nCodec ID/Hint                    : MP3\nDuration                         : 26s 18ms\nBit rate mode                    : Constant\nBit rate                         : 128 Kbps\nChannel(s)                       : 2 channels\nSampling rate                    : 44.1 KHz\nResolution                       : 16 bits\nStream size                      : 407 KiB (3%)\nAlignment                        : Aligned on interleaves\nInterleave, duration             : 26 ms (0.62 video frame)\nInterleave, preload duration     : 522 ms\n","torrent":{"xt":"urn:btih:05931ea4ef3b198f32da09d32be29b87088e66ea","amp;dn":"I+Am+Among+No+One+MarilynManson+Trailer+720p","amp;tr":["udp%3A%2F%2Ftracker.openbittorrent.com%3A80","udp%3A%2F%2Fopen.demonii.com%3A1337","udp%3A%2F%2Ftracker.coppersurfer.tk%3A6969","udp%3A%2F%2Fexodus.desync.com%3A6969"],"infoHash":"05931ea4ef3b198f32da09d32be29b87088e66ea","infoHashBuffer":{"type":"Buffer","data":[5,147,30,164,239,59,25,143,50,218,9,211,43,226,155,135,8,142,102,234]},"announce":[],"urlList":[]}}